<?xml version="1.0" encoding="utf-8"?><!-- Uploaded to: SVG Repo, www.svgrepo.com, Generator: SVG Repo Mixer Tools -->
<svg width="800px" height="800px" viewBox="0 0 24 24" fill="none" xmlns="http://www.w3.org/2000/svg">
<path d="M22 13.9999C21.9957 12.7895 21.5525 11.6215 20.7525 10.7131C19.9525 9.80461 18.8502 9.21711 17.65 9.05975C17.1768 7.73466 16.2529 6.61822 15.0399 5.90521C13.8269 5.19221 12.4019 4.92799 11.0139 5.15912C9.62597 5.39024 8.36341 6.102 7.4469 7.16962C6.53039 8.23724 6.01826 9.59301 6 10.9999C4.93913 10.9999 3.92172 11.4212 3.17157 12.1713C2.42142 12.9215 2 13.9391 2 14.9999C2 16.0608 2.42142 17.0782 3.17157 17.8283C3.92172 18.5785 4.93913 18.9999 6 18.9999H11" stroke="#000000" stroke-width="1.5" stroke-linecap="round" stroke-linejoin="round"/>
<path d="M19 23V15" stroke="#000000" stroke-width="1.5" stroke-linecap="round" stroke-linejoin="round"/>
<path d="M15 19H23" stroke="#000000" stroke-width="1.5" stroke-linecap="round" stroke-linejoin="round"/>
</svg>